<svg id="SvgjsSvg1001" width="288" height="288" xmlns="http://www.w3.org/2000/svg" version="1.1" xmlns:xlink="http://www.w3.org/1999/xlink" xmlns:svgjs="http://svgjs.com/svgjs"><defs id="SvgjsDefs1002"></defs><g id="SvgjsG1008"><svg xmlns="http://www.w3.org/2000/svg" enable-background="new 0 0 47.5 47.5" viewBox="0 0 47.5 47.5" width="288" height="288"><path fill="#ade1fd" d="M0 0h-6l-7-9h10l3 9z" transform="matrix(1.25 0 0 -1.25 17.5 5)" class="colorbdddf4 svgShape"></path><path fill="#215580" d="m0 0-7 9h-6l3-9H0z" transform="matrix(1.25 0 0 -1.25 46.25 16.25)" class="color5dadec svgShape"></path><path fill="#114065" d="M0 0h10L-8-21 0 0Z" transform="matrix(1.25 0 0 -1.25 33.75 16.25)" class="color4289c1 svgShape"></path><path fill="#60a1e4" d="M0 0h-10L8-21 0 0Z" transform="matrix(1.25 0 0 -1.25 13.75 16.25)" class="color8ccaf7 svgShape"></path><path fill="#60a1e4" d="m0 0-3-9h16l-3 9H0Z" transform="matrix(1.25 0 0 -1.25 17.5 5)" class="color8ccaf7 svgShape"></path><path fill="#215580" d="m0 0-8 21H8L0 0Z" transform="matrix(1.25 0 0 -1.25 23.75 42.5)" class="color5dadec svgShape"></path></svg></g></svg>